<?xml version="1.0" encoding="UTF-8"?><svg id="Capa_1" xmlns="http://www.w3.org/2000/svg" viewBox="0 0 792 265.4"><defs><style>.cls-1{fill-rule:evenodd;}.cls-1,.cls-2{fill:#fff;stroke-width:0px;}</style></defs><path class="cls-2" d="m289.56,224.59v-23.1h9.38c1.66,0,2.92.08,3.79.22,1.23.19,2.25.55,3.08,1.08.82.53,1.49,1.27,1.99,2.23.5.96.75,2,.75,3.15,0,1.96-.67,3.63-2.01,4.99-1.35,1.36-3.79,2.04-7.3,2.04h-6.38v9.39h-3.29Zm3.29-12.12h6.44c2.13,0,3.64-.37,4.53-1.1.89-.74,1.34-1.77,1.34-3.11,0-.97-.26-1.8-.79-2.48-.53-.69-1.22-1.14-2.08-1.36-.56-.13-1.58-.2-3.07-.2h-6.37v8.26Zm18.37,3.75c0-3.1.92-5.39,2.79-6.89,1.55-1.24,3.43-1.86,5.67-1.86,2.48,0,4.51.75,6.08,2.27,1.57,1.51,2.35,3.59,2.35,6.24,0,2.16-.35,3.85-1.04,5.08-.7,1.24-1.71,2.2-3.04,2.88-1.33.68-2.78,1.02-4.36,1.02-2.52,0-4.56-.75-6.12-2.25-1.55-1.5-2.33-3.66-2.33-6.49m3.14,0c0,2.15.5,3.75,1.51,4.81,1.01,1.07,2.28,1.6,3.8,1.6s2.78-.54,3.79-1.61c1-1.07,1.51-2.7,1.51-4.9,0-2.07-.51-3.64-1.52-4.71-1.01-1.07-2.27-1.6-3.78-1.6s-2.79.53-3.8,1.59c-1.01,1.06-1.51,2.67-1.51,4.81m17.3,8.37v-16.73h2.74v2.53c.7-1.18,1.35-1.97,1.95-2.35.59-.37,1.25-.57,1.96-.57,1.04,0,2.08.31,3.14.91l-1.05,2.64c-.74-.41-1.49-.62-2.24-.62-.67,0-1.27.19-1.8.56-.53.38-.91.89-1.14,1.55-.34,1.01-.51,2.11-.51,3.31v8.76h-3.05Zm33.6-5.39l3.15.36c-.49,1.72-1.42,3.05-2.76,3.99-1.35.94-3.07,1.42-5.16,1.42-2.64,0-4.73-.75-6.27-2.26-1.55-1.5-2.32-3.62-2.32-6.34s.78-5,2.34-6.56c1.56-1.56,3.59-2.34,6.08-2.34s4.38.76,5.9,2.29c1.53,1.52,2.3,3.67,2.3,6.43,0,.17,0,.43-.02.76h-13.44c.11,1.84.67,3.25,1.68,4.22,1.01.98,2.26,1.47,3.76,1.47,1.12,0,2.07-.27,2.87-.82.79-.54,1.42-1.41,1.88-2.61m-10.03-4.59h10.07c-.14-1.4-.53-2.46-1.16-3.16-.97-1.09-2.23-1.64-3.78-1.64-1.4,0-2.59.43-3.54,1.31-.96.87-1.49,2.04-1.59,3.5m16.96-13.12h3.05v23.1h-3.05v-23.1Zm29.21,16.97l3,.37c-.33,1.92-1.16,3.43-2.52,4.52-1.35,1.09-3.01,1.63-4.98,1.63-2.46,0-4.45-.75-5.95-2.24-1.5-1.5-2.25-3.64-2.25-6.44,0-1.81.33-3.39.97-4.74.65-1.36,1.63-2.37,2.95-3.05,1.32-.68,2.75-1.02,4.3-1.02,1.96,0,3.56.46,4.8,1.39,1.25.92,2.04,2.22,2.4,3.91l-2.97.42c-.28-1.12-.78-1.97-1.5-2.54-.72-.56-1.59-.85-2.61-.85-1.54,0-2.79.51-3.75,1.54-.96,1.02-1.44,2.64-1.44,4.86s.46,3.88,1.4,4.91c.93,1.02,2.14,1.53,3.63,1.53,1.2,0,2.2-.34,3-1.03.81-.68,1.32-1.73,1.53-3.15m4.48-2.24c0-3.1.92-5.39,2.78-6.89,1.55-1.24,3.44-1.86,5.67-1.86,2.48,0,4.51.75,6.08,2.27,1.58,1.51,2.35,3.59,2.35,6.24,0,2.16-.35,3.85-1.04,5.08-.7,1.24-1.71,2.2-3.04,2.88-1.33.68-2.78,1.02-4.36,1.02-2.52,0-4.56-.75-6.12-2.25-1.56-1.5-2.33-3.66-2.33-6.49m3.14,0c0,2.15.5,3.75,1.51,4.81,1.01,1.07,2.28,1.6,3.8,1.6s2.78-.54,3.79-1.61c1-1.07,1.51-2.7,1.51-4.9,0-2.07-.5-3.64-1.52-4.71-1.01-1.07-2.27-1.6-3.78-1.6s-2.79.53-3.8,1.59c-1.01,1.06-1.51,2.67-1.51,4.81m17.33,8.37v-16.73h2.75v2.38c1.33-1.84,3.24-2.76,5.74-2.76,1.09,0,2.09.18,3,.54.91.37,1.59.84,2.04,1.43.46.59.77,1.29.96,2.09.11.53.17,1.45.17,2.76v10.29h-3.06v-10.18c0-1.15-.11-2.02-.35-2.59-.24-.57-.66-1.03-1.26-1.36-.61-.34-1.32-.52-2.13-.52-1.31,0-2.42.39-3.37,1.15-.94.77-1.41,2.22-1.41,4.37v9.14h-3.05Zm26-2.54l.44,2.51c-.85.17-1.63.25-2.31.25-1.11,0-1.97-.16-2.58-.49-.61-.32-1.04-.75-1.28-1.29-.25-.53-.38-1.65-.38-3.35v-9.63h-2.24v-2.2h2.24v-4.15l3.04-1.7v5.85h3.07v2.2h-3.07v9.79c0,.81.05,1.33.16,1.56.11.23.28.41.53.55.24.14.59.21,1.04.21.34,0,.78-.04,1.34-.11m2.96,2.54v-16.73h2.75v2.53c.7-1.18,1.35-1.97,1.95-2.35.59-.37,1.24-.57,1.95-.57,1.03,0,2.08.31,3.15.91l-1.06,2.64c-.74-.41-1.49-.62-2.24-.62-.67,0-1.27.19-1.8.56-.53.38-.91.89-1.13,1.55-.34,1.01-.51,2.11-.51,3.31v8.76h-3.05Zm10.47-8.37c0-3.1.93-5.39,2.79-6.89,1.55-1.24,3.43-1.86,5.67-1.86,2.48,0,4.51.75,6.08,2.27,1.57,1.51,2.36,3.59,2.36,6.24,0,2.16-.35,3.85-1.04,5.08-.69,1.24-1.71,2.2-3.03,2.88-1.33.68-2.78,1.02-4.36,1.02-2.52,0-4.56-.75-6.12-2.25-1.56-1.5-2.33-3.66-2.33-6.49m3.14,0c0,2.15.5,3.75,1.51,4.81,1.01,1.07,2.28,1.6,3.8,1.6s2.78-.54,3.79-1.61c1-1.07,1.51-2.7,1.51-4.9,0-2.07-.5-3.64-1.52-4.71-1.01-1.07-2.27-1.6-3.78-1.6s-2.79.53-3.8,1.59c-1.01,1.06-1.51,2.67-1.51,4.81m17.26-14.73h3.05v23.1h-3.05v-23.1Zm29.14,23.1v-2.12c-1.14,1.66-2.82,2.49-5.04,2.49-1.44,0-2.76-.37-3.96-1.1-1.2-.73-2.14-1.76-2.81-3.08-.66-1.32-.99-2.83-.99-4.55s.3-3.18.89-4.55c.6-1.36,1.5-2.4,2.7-3.12,1.2-.73,2.54-1.09,4.03-1.09,1.08,0,2.05.21,2.89.64.85.43,1.54.98,2.07,1.66v-8.29h3.04v23.1h-2.83Zm-9.66-8.35c0,2.15.49,3.75,1.46,4.81.97,1.06,2.12,1.59,3.45,1.59s2.47-.51,3.4-1.52c.93-1.01,1.4-2.56,1.4-4.64,0-2.29-.48-3.97-1.43-5.04-.95-1.08-2.12-1.61-3.51-1.61s-2.49.52-3.4,1.55c-.91,1.03-1.37,2.65-1.37,4.87m29.64,2.96l3.15.36c-.5,1.72-1.42,3.05-2.76,3.99-1.35.94-3.07,1.42-5.16,1.42-2.64,0-4.72-.75-6.27-2.26-1.55-1.5-2.32-3.62-2.32-6.34s.78-5,2.34-6.56c1.56-1.56,3.59-2.34,6.08-2.34s4.38.76,5.9,2.29c1.53,1.52,2.3,3.67,2.3,6.43,0,.17,0,.43-.02.76h-13.44c.11,1.84.67,3.25,1.68,4.22,1.01.98,2.26,1.47,3.77,1.47,1.12,0,2.07-.27,2.87-.82.79-.54,1.42-1.41,1.88-2.61m-10.03-4.59h10.07c-.13-1.4-.53-2.46-1.15-3.16-.97-1.09-2.24-1.64-3.78-1.64-1.4,0-2.58.43-3.54,1.31-.95.87-1.48,2.04-1.59,3.5m16.96-13.12h3.05v23.1h-3.05v-23.1Zm29.21,16.97l3,.37c-.33,1.92-1.17,3.43-2.52,4.52-1.35,1.09-3.01,1.63-4.98,1.63-2.46,0-4.45-.75-5.95-2.24-1.5-1.5-2.25-3.64-2.25-6.44,0-1.81.32-3.39.97-4.74.65-1.36,1.63-2.37,2.95-3.05,1.32-.68,2.75-1.02,4.3-1.02,1.96,0,3.56.46,4.8,1.39,1.25.92,2.05,2.22,2.4,3.91l-2.97.42c-.28-1.12-.78-1.97-1.5-2.54-.72-.56-1.59-.85-2.61-.85-1.54,0-2.8.51-3.75,1.54-.96,1.02-1.44,2.64-1.44,4.86s.46,3.88,1.39,4.91c.93,1.02,2.14,1.53,3.63,1.53,1.2,0,2.2-.34,3-1.03.81-.68,1.32-1.73,1.53-3.15m17.38,4.07c-1.14.89-2.22,1.52-3.27,1.89-1.05.37-2.17.55-3.37.55-1.98,0-3.5-.45-4.56-1.35-1.07-.9-1.6-2.05-1.6-3.44,0-.82.2-1.57.6-2.25.4-.68.92-1.22,1.57-1.63.66-.41,1.39-.72,2.2-.93.6-.14,1.5-.29,2.71-.42,2.47-.28,4.29-.6,5.45-.98,0-.39.02-.63.02-.74,0-1.16-.29-1.97-.87-2.44-.77-.65-1.93-.96-3.47-.96-1.43,0-2.49.23-3.18.7-.68.47-1.19,1.3-1.52,2.49l-2.98-.38c.27-1.18.72-2.14,1.34-2.87.62-.73,1.52-1.3,2.7-1.69,1.17-.39,2.54-.59,4.09-.59s2.78.17,3.75.51c.96.34,1.67.76,2.13,1.27.45.51.76,1.15.95,1.93.1.48.15,1.36.15,2.61v3.78c0,2.64.07,4.31.2,5,.13.7.39,1.37.77,2.01h-3.19c-.32-.59-.53-1.27-.61-2.06m-.25-6.34c-1.12.43-2.78.78-4.99,1.08-1.26.17-2.15.35-2.67.56s-.92.52-1.2.92c-.28.4-.43.85-.43,1.35,0,.76.31,1.39.93,1.89.62.5,1.52.75,2.71.75s2.22-.24,3.14-.72c.92-.48,1.6-1.14,2.03-1.96.33-.64.49-1.59.49-2.83v-1.04Zm-5.95-10.41l2.26-4.41h4.01l-3.73,4.41h-2.54Zm13.77,18.82v-16.73h2.75v2.38c1.33-1.84,3.24-2.76,5.74-2.76,1.09,0,2.08.18,2.99.54.91.37,1.59.84,2.04,1.43.46.59.77,1.29.96,2.09.11.53.17,1.45.17,2.76v10.29h-3.06v-10.18c0-1.15-.11-2.02-.35-2.59-.24-.57-.66-1.03-1.26-1.36-.61-.34-1.32-.52-2.13-.52-1.31,0-2.42.39-3.37,1.15-.95.77-1.42,2.22-1.42,4.37v9.14h-3.05Zm31.09-6.13l3,.37c-.32,1.92-1.16,3.43-2.52,4.52-1.35,1.09-3.01,1.63-4.98,1.63-2.46,0-4.45-.75-5.95-2.24-1.5-1.5-2.25-3.64-2.25-6.44,0-1.81.32-3.39.96-4.74.65-1.36,1.63-2.37,2.95-3.05,1.32-.68,2.75-1.02,4.3-1.02,1.96,0,3.56.46,4.8,1.39,1.25.92,2.04,2.22,2.4,3.91l-2.97.42c-.28-1.12-.78-1.97-1.5-2.54-.72-.56-1.59-.85-2.61-.85-1.54,0-2.79.51-3.75,1.54-.96,1.02-1.44,2.64-1.44,4.86s.46,3.88,1.39,4.91c.93,1.02,2.14,1.53,3.63,1.53,1.2,0,2.2-.34,3-1.03.81-.68,1.32-1.73,1.53-3.15m17.95.74l3.16.36c-.5,1.72-1.42,3.05-2.76,3.99-1.35.94-3.07,1.42-5.16,1.42-2.64,0-4.73-.75-6.27-2.26-1.55-1.5-2.32-3.62-2.32-6.34s.78-5,2.34-6.56c1.57-1.56,3.59-2.34,6.08-2.34s4.38.76,5.91,2.29c1.53,1.52,2.29,3.67,2.29,6.43,0,.17,0,.43-.02.76h-13.44c.11,1.84.67,3.25,1.68,4.22,1.01.98,2.25,1.47,3.76,1.47,1.12,0,2.07-.27,2.86-.82.8-.54,1.42-1.41,1.88-2.61m-10.03-4.59h10.06c-.13-1.4-.52-2.46-1.16-3.16-.97-1.09-2.23-1.64-3.78-1.64-1.4,0-2.58.43-3.54,1.31-.96.87-1.49,2.04-1.59,3.5m16.99,9.98v-16.73h2.75v2.53c.7-1.18,1.35-1.97,1.95-2.35.59-.37,1.25-.57,1.96-.57,1.04,0,2.08.31,3.14.91l-1.05,2.64c-.75-.41-1.49-.62-2.24-.62-.67,0-1.27.19-1.8.56-.53.38-.91.89-1.13,1.55-.35,1.01-.51,2.11-.51,3.31v8.76h-3.05Z"/><rect class="cls-2" x="287.32" y="191.36" width="475.16" height="2.86"/><path class="cls-2" d="m313.34,162.13c-1.32-1.13-2.73-1.98-4.2-2.54-1.48-.56-3.03-.85-4.66-.85-3.15,0-5.72,1.01-7.69,3.03-1.97,2.03-2.96,4.65-2.96,7.86s.96,5.68,2.88,7.7c1.93,2.03,4.35,3.03,7.28,3.03,1.7,0,3.33-.3,4.88-.91,1.54-.61,3.02-1.52,4.44-2.74v5.3c-1.26.91-2.64,1.58-4.11,2.02-1.49.45-3.1.67-4.83.67-2.21,0-4.24-.37-6.12-1.08-1.87-.73-3.52-1.79-4.93-3.19-1.41-1.38-2.48-3.01-3.24-4.87-.75-1.87-1.13-3.87-1.13-5.98s.37-4.1,1.13-5.96c.76-1.87,1.85-3.49,3.28-4.9,1.43-1.42,3.07-2.49,4.93-3.22,1.85-.73,3.85-1.1,6-1.1,1.7,0,3.31.25,4.85.74,1.53.49,3.02,1.23,4.47,2.23l-.26,4.73Zm20.13,12.55c0-1.73-.56-3.2-1.68-4.4-1.11-1.2-2.48-1.8-4.1-1.8s-2.96.6-4.09,1.8c-1.12,1.2-1.69,2.67-1.69,4.4s.56,3.2,1.69,4.4c1.12,1.2,2.48,1.8,4.09,1.8s2.96-.6,4.08-1.8c1.12-1.2,1.69-2.67,1.69-4.4m-16.06-.04c0-1.36.26-2.66.78-3.87.52-1.22,1.26-2.3,2.23-3.24.96-.94,2.06-1.65,3.31-2.15,1.24-.5,2.55-.75,3.92-.75s2.73.25,3.97.75c1.24.5,2.36,1.24,3.34,2.21.98.96,1.74,2.04,2.25,3.26.51,1.2.76,2.47.76,3.8s-.25,2.68-.76,3.88c-.5,1.21-1.24,2.28-2.21,3.21-1.03.98-2.17,1.73-3.41,2.23-1.25.5-2.56.76-3.94.76s-2.66-.26-3.91-.76c-1.25-.5-2.35-1.24-3.33-2.19-.98-.98-1.73-2.06-2.25-3.27-.51-1.2-.77-2.5-.77-3.86m25.3-21.22h4.28v30.53h-4.28v-30.53Zm25.05,21.26c0-1.73-.56-3.2-1.68-4.4-1.11-1.2-2.48-1.8-4.09-1.8s-2.97.6-4.09,1.8c-1.12,1.2-1.68,2.67-1.68,4.4s.56,3.2,1.68,4.4c1.12,1.2,2.48,1.8,4.09,1.8s2.96-.6,4.08-1.8c1.12-1.2,1.69-2.67,1.69-4.4m-16.06-.04c0-1.36.26-2.66.78-3.87.52-1.22,1.26-2.3,2.23-3.24.96-.94,2.06-1.65,3.32-2.15,1.24-.5,2.55-.75,3.92-.75s2.72.25,3.97.75c1.24.5,2.35,1.24,3.34,2.21.98.96,1.74,2.04,2.25,3.26.51,1.2.76,2.47.76,3.8s-.25,2.68-.76,3.88c-.51,1.21-1.25,2.28-2.21,3.21-1.03.98-2.17,1.73-3.41,2.23-1.25.5-2.56.76-3.94.76s-2.66-.26-3.91-.76c-1.24-.5-2.35-1.24-3.33-2.19-.98-.98-1.73-2.06-2.25-3.27-.51-1.2-.77-2.5-.77-3.86m29.37,9.32h-4.27v-18.68h4.02v3.05c.85-1.3,1.82-2.25,2.91-2.85,1.08-.6,2.36-.89,3.83-.89s2.66.3,3.62.91c.96.61,1.68,1.54,2.18,2.79.99-1.29,2.04-2.22,3.15-2.82,1.11-.59,2.37-.89,3.79-.89,1.23,0,2.31.23,3.23.68.92.45,1.63,1.12,2.14,1.98.24.41.42.89.52,1.46.12.56.17,1.37.17,2.43v12.82h-4.28v-9.6c0-2.51-.27-4.16-.8-4.96-.53-.79-1.48-1.19-2.84-1.19-1.68,0-2.88.54-3.59,1.61-.72,1.07-1.08,2.95-1.08,5.62v8.52h-4.32v-9.6c0-2.32-.27-3.91-.83-4.81-.56-.9-1.52-1.34-2.89-1.34-.84,0-1.61.19-2.31.57-.69.38-1.24.91-1.65,1.57-.26.44-.44.97-.55,1.6-.1.62-.15,1.79-.15,3.48v8.52Zm35.16-9.4c0,1.91.49,3.44,1.47,4.61.98,1.17,2.24,1.76,3.79,1.76s2.87-.54,3.75-1.61c.89-1.08,1.33-2.61,1.33-4.59s-.46-3.51-1.38-4.62c-.93-1.11-2.2-1.67-3.82-1.67s-2.88.54-3.78,1.61c-.91,1.08-1.36,2.58-1.36,4.51m.14-21.13v14.91c.5-1.17,1.3-2.09,2.4-2.73,1.1-.64,2.41-.96,3.93-.96,2.47,0,4.49.91,6.03,2.75,1.54,1.83,2.31,4.24,2.31,7.22,0,3.14-.76,5.61-2.27,7.42-1.52,1.81-3.6,2.71-6.23,2.71-1.32,0-2.48-.26-3.5-.79-1.01-.53-1.91-1.33-2.67-2.4v2.42h-4.27v-30.54h4.27Zm18.84,3.79c0-.73.27-1.35.8-1.88s1.16-.78,1.9-.78c.77,0,1.4.26,1.9.76.5.5.76,1.14.76,1.9s-.25,1.4-.77,1.92c-.51.52-1.14.78-1.9.78s-1.36-.27-1.9-.8-.8-1.16-.8-1.9m.57,8.07h4.28v18.68h-4.28v-18.68Zm27.95,18.68h-4.28v-2.42c-.75,1.07-1.65,1.87-2.67,2.4-1.02.53-2.18.79-3.5.79-2.64,0-4.71-.9-6.23-2.71-1.51-1.8-2.27-4.28-2.27-7.42s.77-5.39,2.33-7.22c1.54-1.84,3.57-2.75,6.06-2.75,1.52,0,2.82.32,3.91.96,1.08.64,1.87,1.55,2.37,2.74v-3.05h4.28v18.68Zm-4.16-9.4c0-1.93-.45-3.43-1.35-4.51-.9-1.08-2.16-1.61-3.77-1.61s-2.89.56-3.82,1.67c-.92,1.11-1.39,2.65-1.39,4.62s.44,3.51,1.34,4.59c.89,1.08,2.15,1.61,3.78,1.61,1.54,0,2.79-.59,3.75-1.76.97-1.17,1.46-2.7,1.46-4.61"/><path class="cls-2" d="m291.82,41.18h6.83v42.03h-6.83v-42.03Zm16.13,42.03v-27.22h5.86v4.45c1.24-1.88,2.7-3.24,4.39-4.11,1.69-.86,3.73-1.29,6.15-1.29,2.03,0,3.75.32,5.18.96,1.42.65,2.54,1.6,3.34,2.86.48.75.82,1.62,1.04,2.61.21,1,.32,2.74.32,5.22v16.51h-6.29v-13.98c0-3.58-.43-5.96-1.3-7.14-.87-1.17-2.42-1.76-4.64-1.76-1.46,0-2.75.27-3.89.8-1.13.54-2.03,1.29-2.68,2.26-.46.66-.78,1.49-.96,2.52-.19,1.02-.27,2.66-.27,4.89v12.41h-6.23Zm31.44-4.94l5.16-2.81c.38,1.36,1.09,2.39,2.13,3.11,1.04.71,2.36,1.06,4,1.06,1.39,0,2.49-.32,3.28-.96.79-.65,1.2-1.52,1.2-2.63,0-1.48-1.41-2.74-4.24-3.79-.96-.34-1.69-.63-2.22-.86-2.91-1.2-4.95-2.43-6.1-3.67-1.16-1.25-1.74-2.76-1.74-4.54,0-2.43.95-4.4,2.86-5.92,1.9-1.51,4.42-2.26,7.56-2.26,2.11,0,3.91.39,5.42,1.17,1.5.77,2.6,1.87,3.28,3.31l-4.42,3.05c-.32-.86-.89-1.55-1.7-2.06-.82-.51-1.76-.76-2.83-.76-1.19,0-2.14.28-2.85.85-.72.56-1.08,1.32-1.08,2.25,0,1.41,1.61,2.7,4.82,3.88,1.02.37,1.81.66,2.35.89,2.51.99,4.3,2.12,5.38,3.37,1.09,1.26,1.63,2.81,1.63,4.69,0,2.72-.99,4.84-2.96,6.38-1.97,1.54-4.68,2.31-8.15,2.31-2.67,0-4.87-.5-6.64-1.49-1.77-1-3.14-2.52-4.14-4.57m29.63,4.94v-21.76h-4.76v-5.46h4.76v-10.31h6.23v10.31h4.76v5.46h-4.76v21.76h-6.23Zm15.82-38.99c0-1.06.39-1.97,1.17-2.73.78-.76,1.7-1.15,2.77-1.15s2.03.37,2.77,1.1c.73.74,1.1,1.66,1.1,2.77s-.37,2.04-1.12,2.8c-.75.75-1.67,1.13-2.76,1.13s-1.99-.39-2.77-1.17c-.77-.77-1.17-1.7-1.17-2.76m.83,11.77h6.23v27.22h-6.23v-27.22Zm16.59,27.22v-21.76h-4.76v-5.46h4.76v-10.31h6.23v10.31h4.76v5.46h-4.76v21.76h-6.23Zm22.39-27.22v15.33c0,2.65.55,4.54,1.64,5.69,1.09,1.15,2.86,1.72,5.31,1.72s4.21-.58,5.3-1.72c1.09-1.15,1.64-3.04,1.64-5.69v-15.33h6.23v13.47c0,5.2-1.04,8.99-3.13,11.34-2.09,2.35-5.42,3.53-9.99,3.53s-8.02-1.17-10.1-3.5c-2.09-2.34-3.13-6.12-3.13-11.37v-13.47h6.23Zm30,27.22v-21.76h-4.76v-5.46h4.76v-10.31h6.23v10.31h4.76v5.46h-4.76v21.76h-6.23Zm37.75-13.53c0-2.53-.82-4.66-2.44-6.42-1.63-1.75-3.62-2.62-5.97-2.62s-4.32.87-5.96,2.62c-1.64,1.76-2.46,3.89-2.46,6.42s.82,4.66,2.46,6.42c1.63,1.75,3.61,2.63,5.96,2.63s4.31-.87,5.95-2.63c1.63-1.76,2.46-3.89,2.46-6.42m-23.4-.06c0-1.99.38-3.87,1.14-5.64.75-1.77,1.84-3.35,3.25-4.72,1.4-1.36,3.01-2.4,4.83-3.14,1.81-.72,3.71-1.09,5.71-1.09s3.97.36,5.78,1.09c1.82.73,3.43,1.81,4.87,3.21,1.43,1.4,2.53,2.98,3.27,4.74.74,1.76,1.12,3.61,1.12,5.54s-.37,3.9-1.1,5.65c-.74,1.76-1.81,3.32-3.22,4.68-1.5,1.43-3.16,2.52-4.97,3.25-1.82.73-3.73,1.11-5.74,1.11s-3.87-.37-5.69-1.11c-1.81-.73-3.43-1.8-4.85-3.19-1.43-1.42-2.53-3.01-3.27-4.77-.74-1.76-1.12-3.64-1.12-5.63m54.84,13.58v-43.7l26.69,25.7c.74.72,1.48,1.5,2.22,2.32.75.82,1.53,1.75,2.35,2.79v-29.14h6.32v43.67l-27.24-26.15c-.72-.71-1.43-1.45-2.1-2.24-.69-.79-1.33-1.61-1.94-2.47v29.22h-6.29Zm72.32,0h-6.24v-3.53c-1.1,1.57-2.41,2.73-3.89,3.5-1.48.76-3.17,1.15-5.1,1.15-3.84,0-6.87-1.32-9.09-3.95-2.2-2.63-3.31-6.23-3.31-10.81,0-4.34,1.13-7.85,3.39-10.51,2.25-2.68,5.21-4.01,8.84-4.01,2.22,0,4.11.46,5.7,1.39,1.58.93,2.73,2.26,3.46,4v-4.44h6.24v27.22Zm-6.05-13.7c0-2.81-.66-5-1.97-6.57-1.32-1.57-3.15-2.35-5.5-2.35s-4.2.82-5.55,2.43c-1.34,1.61-2.02,3.86-2.02,6.73s.65,5.12,1.95,6.69c1.3,1.57,3.13,2.35,5.5,2.35,2.25,0,4.07-.85,5.47-2.56,1.41-1.71,2.12-3.94,2.12-6.72m34.99-5.76c-.96-1.05-2.07-1.85-3.34-2.41s-2.64-.83-4.13-.83c-2.54,0-4.57.82-6.11,2.47-1.53,1.65-2.29,3.82-2.29,6.55s.78,5.06,2.31,6.67c1.54,1.62,3.66,2.42,6.39,2.42,1.51,0,2.86-.28,4.04-.85,1.19-.56,2.23-1.42,3.13-2.57v7.18c-1.15.65-2.38,1.14-3.68,1.46-1.32.32-2.71.49-4.19.49-4.26,0-7.74-1.36-10.43-4.08-2.69-2.71-4.04-6.24-4.04-10.56s1.39-7.92,4.18-10.6c2.78-2.7,6.43-4.04,10.93-4.04,1.41,0,2.72.14,3.9.42,1.19.27,2.3.69,3.33,1.27v7.01Zm5.84-19.52c0-1.06.39-1.97,1.17-2.73.77-.76,1.69-1.15,2.76-1.15s2.04.37,2.77,1.1c.74.74,1.1,1.66,1.1,2.77s-.37,2.04-1.12,2.8c-.75.75-1.66,1.13-2.76,1.13s-1.99-.39-2.76-1.17c-.78-.77-1.17-1.7-1.17-2.76m.83,11.77h6.23v27.22h-6.23v-27.22Zm36.52,13.69c0-2.53-.81-4.66-2.44-6.42-1.63-1.75-3.62-2.62-5.97-2.62s-4.32.87-5.96,2.62c-1.64,1.76-2.46,3.89-2.46,6.42s.82,4.66,2.46,6.42c1.64,1.75,3.62,2.63,5.96,2.63s4.31-.87,5.95-2.63c1.64-1.76,2.46-3.89,2.46-6.42m-23.4-.06c0-1.99.38-3.87,1.14-5.64.75-1.77,1.84-3.35,3.25-4.72,1.4-1.36,3.01-2.4,4.84-3.14,1.81-.72,3.71-1.09,5.71-1.09s3.97.36,5.78,1.09c1.81.73,3.43,1.81,4.87,3.21,1.43,1.4,2.53,2.98,3.27,4.74.75,1.76,1.12,3.61,1.12,5.54s-.37,3.9-1.11,5.65c-.73,1.76-1.81,3.32-3.22,4.68-1.5,1.43-3.16,2.52-4.97,3.25-1.82.73-3.73,1.11-5.74,1.11s-3.88-.37-5.7-1.11c-1.82-.73-3.43-1.8-4.85-3.19-1.43-1.42-2.53-3.01-3.27-4.77-.75-1.76-1.12-3.64-1.12-5.63m36.57,13.58v-27.22h5.86v4.45c1.25-1.88,2.7-3.24,4.39-4.11,1.68-.86,3.73-1.29,6.15-1.29,2.03,0,3.75.32,5.19.96,1.42.65,2.54,1.6,3.34,2.86.48.75.82,1.62,1.04,2.61.21,1,.31,2.74.31,5.22v16.51h-6.29v-13.98c0-3.58-.43-5.96-1.31-7.14-.87-1.17-2.42-1.76-4.63-1.76-1.46,0-2.75.27-3.89.8-1.14.54-2.04,1.29-2.68,2.26-.46.66-.78,1.49-.96,2.52-.18,1.02-.27,2.66-.27,4.89v12.41h-6.23Zm60.17,0h-6.23v-3.53c-1.11,1.57-2.41,2.73-3.89,3.5-1.48.76-3.18,1.15-5.1,1.15-3.84,0-6.87-1.32-9.09-3.95-2.21-2.63-3.31-6.23-3.31-10.81,0-4.34,1.13-7.85,3.39-10.51,2.25-2.68,5.2-4.01,8.83-4.01,2.22,0,4.12.46,5.69,1.39,1.58.93,2.73,2.26,3.46,4v-4.44h6.23v27.22Zm-6.06-13.7c0-2.81-.65-5-1.97-6.57-1.31-1.57-3.15-2.35-5.5-2.35s-4.2.82-5.55,2.43c-1.34,1.61-2.02,3.86-2.02,6.73s.65,5.12,1.95,6.69c1.31,1.57,3.14,2.35,5.51,2.35,2.25,0,4.07-.85,5.47-2.56,1.41-1.71,2.12-3.94,2.12-6.72m14.96-30.8h6.23v44.5h-6.23v-44.5Z"/><path class="cls-2" d="m310.74,126.77c0-2.81-.66-5-1.97-6.57-1.32-1.57-3.15-2.35-5.5-2.35s-4.2.81-5.56,2.43c-1.34,1.61-2.02,3.86-2.02,6.73s.65,5.12,1.95,6.69c1.3,1.57,3.14,2.35,5.51,2.35s4.09-.85,5.49-2.54c1.39-1.69,2.1-3.94,2.1-6.74m-.18-30.8h6.23v44.5h-6.23v-3.53c-1.11,1.57-2.41,2.73-3.89,3.5-1.48.76-3.17,1.15-5.1,1.15-3.84,0-6.87-1.31-9.08-3.95-2.21-2.63-3.31-6.23-3.31-10.81s1.13-7.85,3.39-10.52c2.25-2.68,5.2-4.01,8.84-4.01,2.22,0,4.11.46,5.7,1.39,1.58.93,2.73,2.26,3.46,4v-21.73Zm41.06,31.81h-21.77c.16,2.55.91,4.52,2.27,5.96,1.35,1.42,3.17,2.13,5.43,2.13,2.01,0,3.69-.42,5.02-1.26,1.34-.85,2.51-2.21,3.51-4.08l5.25,2.93c-1.53,2.73-3.43,4.78-5.68,6.12-2.26,1.34-4.91,2.01-7.96,2.01-4.36,0-7.84-1.33-10.42-3.99-2.59-2.67-3.88-6.21-3.88-10.65s1.33-7.77,4.01-10.53c2.66-2.74,6.09-4.11,10.29-4.11s7.8,1.25,10.25,3.76c2.45,2.51,3.67,6.02,3.67,10.53v1.18Zm-6.46-4.2c-.24-1.95-1-3.44-2.24-4.46-1.24-1.03-2.94-1.54-5.11-1.54-2.05,0-3.69.5-4.94,1.49-1.24,1-2.12,2.5-2.62,4.51h14.91Zm64.95-14.93c-1.93-1.64-3.98-2.88-6.12-3.71-2.16-.82-4.42-1.23-6.79-1.23-4.6,0-8.33,1.47-11.21,4.42-2.88,2.95-4.32,6.77-4.32,11.45s1.4,8.28,4.2,11.23c2.8,2.95,6.34,4.42,10.62,4.42,2.48,0,4.85-.44,7.11-1.33,2.24-.88,4.39-2.2,6.47-3.99v7.72c-1.83,1.32-3.84,2.3-6,2.95-2.17.66-4.51.98-7.04.98-3.21,0-6.18-.53-8.92-1.58-2.73-1.06-5.13-2.61-7.2-4.65-2.05-2.01-3.62-4.38-4.72-7.11-1.1-2.72-1.65-5.64-1.65-8.71s.55-5.98,1.65-8.68c1.11-2.71,2.7-5.09,4.78-7.13,2.09-2.07,4.48-3.64,7.18-4.69,2.69-1.07,5.61-1.6,8.75-1.6,2.47,0,4.82.36,7.07,1.08,2.24.72,4.41,1.8,6.52,3.25l-.37,6.9Zm33.56,31.81h-6.23v-3.53c-1.11,1.57-2.41,2.73-3.89,3.5-1.48.76-3.18,1.15-5.1,1.15-3.84,0-6.87-1.31-9.09-3.95-2.2-2.63-3.31-6.23-3.31-10.81s1.13-7.85,3.39-10.52c2.25-2.68,5.2-4.01,8.84-4.01,2.22,0,4.11.46,5.7,1.39,1.58.93,2.73,2.26,3.46,4v-4.44h6.23v27.21Zm-6.06-13.7c0-2.81-.65-5-1.96-6.57-1.32-1.57-3.15-2.35-5.5-2.35s-4.2.81-5.56,2.43c-1.34,1.61-2.02,3.86-2.02,6.73s.65,5.12,1.94,6.69c1.31,1.57,3.14,2.35,5.51,2.35,2.24,0,4.07-.85,5.47-2.56,1.41-1.7,2.12-3.94,2.12-6.72m14.67,13.7v-27.21h5.86v4.45c1.25-1.88,2.71-3.24,4.39-4.11,1.68-.86,3.73-1.29,6.14-1.29,2.03,0,3.75.32,5.19.96,1.42.65,2.54,1.6,3.34,2.86.48.75.82,1.62,1.04,2.61.21,1,.31,2.74.31,5.22v16.51h-6.29v-13.98c0-3.58-.43-5.96-1.3-7.14-.88-1.17-2.42-1.76-4.64-1.76-1.46,0-2.75.27-3.89.8-1.14.54-2.04,1.29-2.69,2.26-.46.65-.78,1.49-.96,2.52-.18,1.02-.27,2.65-.27,4.89v12.41h-6.23Zm54.89-19.46c-.96-1.05-2.07-1.85-3.34-2.41-1.27-.56-2.65-.83-4.12-.83-2.54,0-4.58.82-6.12,2.47-1.53,1.65-2.29,3.82-2.29,6.55s.77,5.06,2.32,6.67c1.53,1.62,3.66,2.42,6.38,2.42,1.52,0,2.86-.28,4.05-.85,1.19-.56,2.22-1.42,3.12-2.57v7.18c-1.15.65-2.38,1.14-3.68,1.46-1.31.32-2.71.49-4.18.49-4.27,0-7.74-1.36-10.43-4.07-2.7-2.72-4.04-6.25-4.04-10.56s1.39-7.92,4.17-10.6c2.79-2.7,6.43-4.04,10.93-4.04,1.41,0,2.72.14,3.9.42,1.18.27,2.3.69,3.33,1.27v7.01Zm32.6,6.77h-21.76c.15,2.55.91,4.52,2.27,5.96,1.35,1.42,3.16,2.13,5.43,2.13,2.01,0,3.69-.42,5.02-1.26,1.34-.85,2.51-2.21,3.51-4.08l5.25,2.93c-1.53,2.73-3.43,4.78-5.68,6.12-2.26,1.34-4.91,2.01-7.96,2.01-4.36,0-7.84-1.33-10.41-3.99-2.59-2.67-3.88-6.21-3.88-10.65s1.33-7.77,4.01-10.53c2.66-2.74,6.09-4.11,10.29-4.11s7.8,1.25,10.25,3.76c2.45,2.51,3.68,6.02,3.68,10.53v1.18Zm-6.46-4.2c-.24-1.95-1-3.44-2.25-4.46-1.25-1.03-2.94-1.54-5.11-1.54-2.05,0-3.69.5-4.93,1.49-1.25,1-2.12,2.5-2.62,4.51h14.9Zm19.18-6c.67-1.79,1.56-3.13,2.66-3.99,1.1-.86,2.46-1.29,4.09-1.29.87,0,1.74.11,2.6.31.85.21,1.69.52,2.51.92l-2.25,5.28c-.53-.38-1.1-.67-1.73-.84-.62-.19-1.31-.27-2.08-.27-2.07,0-3.55.82-4.45,2.48-.9,1.66-1.36,4.44-1.36,8.34v11.95h-6.23v-27.27h6.23v4.39Zm36.81,9.36c0-2.53-.81-4.67-2.44-6.42s-3.62-2.63-5.97-2.63-4.32.87-5.96,2.63c-1.63,1.75-2.46,3.89-2.46,6.42s.82,4.66,2.46,6.42c1.64,1.75,3.62,2.63,5.96,2.63s4.32-.87,5.95-2.63c1.64-1.76,2.46-3.89,2.46-6.42m-23.4-.06c0-1.99.38-3.87,1.13-5.64.75-1.77,1.84-3.35,3.25-4.72,1.4-1.36,3.01-2.4,4.83-3.14,1.82-.72,3.72-1.09,5.71-1.09s3.97.36,5.78,1.09c1.81.73,3.43,1.8,4.87,3.21,1.43,1.4,2.53,2.98,3.27,4.74.75,1.75,1.12,3.6,1.12,5.54s-.37,3.9-1.11,5.65c-.73,1.77-1.81,3.32-3.23,4.68-1.49,1.43-3.15,2.52-4.97,3.25-1.83.74-3.73,1.11-5.74,1.11s-3.87-.37-5.69-1.11c-1.81-.73-3.43-1.8-4.85-3.19-1.43-1.42-2.53-3.01-3.27-4.77-.75-1.76-1.11-3.64-1.11-5.63m36.86-30.92h6.24v44.5h-6.24v-44.5Zm36.52,30.98c0-2.53-.81-4.67-2.44-6.42s-3.62-2.63-5.97-2.63-4.32.87-5.96,2.63c-1.64,1.75-2.46,3.89-2.46,6.42s.82,4.66,2.46,6.42c1.64,1.75,3.62,2.63,5.96,2.63s4.31-.87,5.95-2.63c1.64-1.76,2.46-3.89,2.46-6.42m-23.4-.06c0-1.99.38-3.87,1.14-5.64.75-1.77,1.84-3.35,3.25-4.72,1.4-1.36,3.01-2.4,4.83-3.14,1.81-.72,3.71-1.09,5.71-1.09s3.97.36,5.78,1.09c1.81.73,3.43,1.8,4.87,3.21,1.43,1.4,2.53,2.98,3.28,4.74.75,1.75,1.11,3.6,1.11,5.54s-.37,3.9-1.1,5.65c-.73,1.77-1.81,3.32-3.22,4.68-1.5,1.43-3.15,2.52-4.97,3.25-1.83.74-3.74,1.11-5.75,1.11s-3.87-.37-5.69-1.11c-1.81-.73-3.43-1.8-4.85-3.19-1.43-1.42-2.53-3.01-3.27-4.77-.75-1.76-1.12-3.64-1.12-5.63m56.12-.12c0-2.81-.65-5-1.97-6.57-1.31-1.57-3.15-2.35-5.5-2.35s-4.2.81-5.55,2.43c-1.34,1.61-2.02,3.86-2.02,6.73s.65,5.12,1.95,6.69c1.3,1.57,3.14,2.35,5.51,2.35,2.25,0,4.07-.85,5.47-2.56,1.41-1.7,2.11-3.94,2.11-6.72m6.05,12c0,5.32-1.05,9.07-3.18,11.24-2.13,2.18-5.71,3.26-10.74,3.26-3.74,0-6.74-.79-8.99-2.37-2.24-1.58-3.37-3.68-3.41-6.3l6.69-.03c.1,1.17.65,2.06,1.64,2.68,1,.62,2.39.92,4.19.92,2.66,0,4.57-.59,5.74-1.75,1.16-1.17,1.76-3.13,1.77-5.86l.06-3.62c-1.1,1.57-2.41,2.73-3.89,3.5-1.48.76-3.18,1.15-5.09,1.15-3.85,0-6.87-1.31-9.09-3.95-2.21-2.63-3.31-6.23-3.31-10.81s1.13-7.85,3.39-10.52c2.25-2.68,5.2-4.01,8.84-4.01,2.21,0,4.12.46,5.7,1.39,1.58.93,2.73,2.26,3.46,4v-4.44h6.23v25.52Zm8.91-25.52h6.23v27.21h-6.23v-27.21Zm-.95-4.14l5.46-7.81h6.46l-8.39,7.81h-3.53Zm41.68,31.35h-6.24v-3.53c-1.1,1.57-2.41,2.73-3.89,3.5-1.48.76-3.17,1.15-5.09,1.15-3.85,0-6.87-1.31-9.09-3.95-2.2-2.63-3.31-6.23-3.31-10.81s1.13-7.85,3.39-10.52c2.26-2.68,5.21-4.01,8.84-4.01,2.22,0,4.12.46,5.7,1.39,1.58.93,2.73,2.26,3.46,4v-4.44h6.24v27.21Zm-6.06-13.7c0-2.81-.66-5-1.97-6.57-1.31-1.57-3.15-2.35-5.5-2.35s-4.2.81-5.55,2.43c-1.35,1.61-2.02,3.86-2.02,6.73s.65,5.12,1.95,6.69c1.3,1.57,3.14,2.35,5.51,2.35,2.25,0,4.07-.85,5.47-2.56,1.41-1.7,2.12-3.94,2.12-6.72"/><rect class="cls-2" x="91.7" y="100.82" width="22.29" height="68.64"/><polygon class="cls-1" points="209.55 100.82 226.56 100.82 226.56 169.46 209.55 169.46 187.26 130.34 187.26 169.46 170.25 169.46 170.25 100.82 187.26 100.82 209.55 140.19 209.55 100.82"/><polygon class="cls-1" points="151.12 186.35 151.12 197.94 133.1 197.94 133.1 186.35 123.45 186.35 123.45 173.1 133.45 173.1 142.12 52.8 150.77 173.1 160.76 173.1 160.76 186.35 151.12 186.35"/><path class="cls-1" d="m150.06,12.66c48.55,0,90.4,28.72,109.49,70.1l-30.67,11.41c-14.38-28.99-44.28-48.92-78.82-48.92-48.56,0-87.94,39.38-87.94,87.94s39.38,87.94,87.94,87.94c33.94,0,63.39-19.24,78.05-47.4l31.21,10.4c-19.2,41.1-60.91,69.59-109.25,69.59-66.56,0-120.53-53.98-120.53-120.53S83.5,12.66,150.06,12.66"/></svg>