<?xml version="1.0" encoding="UTF-8"?><svg id="Capa_1" xmlns="http://www.w3.org/2000/svg" viewBox="0 0 792 265.4"><defs><style>.cls-1{isolation:isolate;}.cls-2{fill:#fff;stroke-width:0px;}</style></defs><g class="cls-1"><g class="cls-1"><path class="cls-2" d="m320.67,87.12c.02-.18.03-.39.03-.6,0-2.55-1.17-7.12-2.01-10.28-1.37-5.02-3.96-12.47-9.05-12.55l-4.95-.08.08,18.49c0,1.83.15,3.66,2.59,3.66,2.6.04,3.27.12,3.27.15l-.08,1.44c-2.65-.17-7-.27-11.14-.27-3.23,0-6.34.06-8.41.19v-1.29c1.68,0,5.83-.1,6.09-1.67.08-.3.3-.84.3-2.59.24-5.57.33-12.53.33-18.95,0-9.63-.19-18.06-.33-18.79-.3-1.29-5.4-2.05-5.4-2.05v-1.29c3.46.1,7.03.13,10.33.13,4.41,0,8.36-.05,10.97-.05,5.38,0,12.56,4.14,12.56,11.6,0,4.9-5.49,9.86-12.25,10.09,7.99.76,10.65,8.22,12.94,14.46,1.29,3.43,1.98,5.63,2.97,7,1.6,2.28,3.19,2.36,4.64,2.43v1.07l-13.47-.23Zm-11.89-44.91c-1.59,0-3.1.12-4.02.24v19.4c4.05.07,4.56.08,5.07.08,5.98,0,8.54-4.92,8.54-9.81,0-4.41-2.02-8.68-5.47-9.53-1.17-.29-2.68-.39-4.13-.39Z"/><path class="cls-2" d="m344.31,72.74c0,6.24,2.28,13.92,7.69,13.92,6.7,0,9.51-5.48,10.35-7.76l2.05,1.45c-.99,2.43-4.64,8.14-12.71,8.14s-14.69-4.95-14.69-15.45c0-12.4,8.9-16.06,15.22-16.06,4.41,0,10.5,1.98,11.95,9.14.16.75.32,1.62.32,2.95,0,.55-.03,1.18-.09,1.92l-20.09.08v1.67Zm13.47-2.89c.06-.78.09-1.58.09-2.37,0-1.36-.11-2.66-.4-3.72-.76-2.97-3.2-5.4-6.85-5.4s-5.86,4.64-6.24,11.57l13.39-.08Z"/><path class="cls-2" d="m398.22,67.48c0,6.74.07,13,.25,17.29.08,1.44,3.27,1.37,4.03,1.52v.91c-2.21.08-7.38.15-9.51.76l-.61-5.48c-1.89,2.34-5.63,5.17-9.43,5.17-7.76,0-13.17-6.06-13.17-14.91,0-9.51,6.16-16.13,14.76-16.13,5.86,0,7.69,4.57,7.69,4.57v-18.49c-.23-1.21-2.89-1.52-5.33-1.52l.08-1.29c3.43,0,8.6-.38,11.64-1.45-.23,7.16-.4,18.67-.4,29.06Zm-5.99,3.13l-.3-6.7s-1.9-5.71-7.3-5.71c-5.78,0-7.3,7.08-7.3,13.85,0,4.72.69,13.17,7.53,13.17,3.8,0,6.92-4.79,6.92-7.76l.46-6.85Z"/><path class="cls-2" d="m457.73,44.58c-.13,1.83-.17,7.26-.17,13.7,0,12.87.17,29.75.17,29.75h-2.59s-27.85-38.27-29.14-39.64c-.06,4.5-.08,7.83-.08,10.38,0,10.61.39,7.93.39,21.03,0,.91,0,1.9,0,2.98,0,1.83.69,3.05,2.66,3.05.42,0,4.26.12,4.26.15v1.37c-2.24-.15-5.19-.24-8.22-.24s-6.13.09-8.68.32v-1.22s.13,0,.36,0c1.36,0,6.16-.11,6.49-1.68.2-12.08.37-18.4.37-25.98,0-3.79-.04-7.9-.14-13.2-.23-1.29-6.85-3.58-6.85-3.58v-1.29l13.77.08c7,9.74,24.58,32.26,24.58,32.26l.07-28.23c-.07-1.49-3.1-2.32-6.07-2.32-.36,0-.72.02-1.08.04l-.15-1.67c2.23.29,4.92.41,7.71.41,3.01,0,6.14-.13,8.95-.33v1.59c-1.22.08-6.55.61-6.62,2.29Z"/><path class="cls-2" d="m499.17,81.71c-.61,3.73-3.04,6.01-7.15,6.01-3.73,0-5.02-3.12-5.25-5.63-1.6,1.75-4.87,5.71-9.51,5.78-4.34,0-9.06-2.2-9.06-8.67,0-9.59,15.52-8.67,18.26-8.83,0,0,.23-2.51.23-5.48,0-4.03-1.67-7.08-6.47-7.08-3.19,0-4.79,1.75-5.17,3.28,2.06,0,2.13,2.26,2.13,3.3,0,2.96-2.72,3.7-3.96,3.7-1.9,0-3.65-2.05-3.65-4.18,0-2.36,1.98-4.18,3.5-5.33,2.74-2.05,6.01-2.13,7.84-2.13,5.82,0,11.95,3.8,11.95,10.73,0,4.65-.3,9.21-.3,13.17,0,2.2.15,4.95,2.28,4.95,1.98,0,2.59-1.45,3.2-4.26l1.14.68Zm-12.71-10.27c-7,.76-11.87.46-11.87,6.93,0,4.61,2.66,6.16,5.63,6.16,3.14,0,5.25-2.51,6.24-4.34v-8.75Z"/><path class="cls-2" d="m528.38,64.98c0,4.26-2.89,5.86-4.41,5.86-1.37,0-4.18-.23-4.18-4.04,0-2.2,1.56-3.88,3.12-3.88,1.3,0,1.83.38,2.51.99-.53-2.13-1.98-6.24-8.75-6.24-4.79,0-8.44,6.62-8.44,15.37,0,6.24,3.73,12.79,9.13,12.79,6.7,0,8.22-5.1,9.05-7.38l2.05,1.45c-.99,2.43-4.57,8.44-11.79,8.44-9.05,0-15.14-5.48-15.14-16.74s9.59-15.21,15.3-15.21c5.25,0,11.57,3.5,11.57,8.6Z"/><path class="cls-2" d="m544.41,84.46c.3,1.45,3.88,1.52,5.17,1.52v1.22c-1.89-.16-4.96-.25-8.09-.25-2.81,0-5.65.08-7.74.25v-1.22c1.98-.07,4.49-.07,4.72-1.52v-24.96c-1.83-.61-2.59-.76-4.72-.76v-1.22c3.73-.15,7.91-.69,10.8-1.67-.15,12.86-.15,7.45-.15,28.61Zm1.29-40.79c0,2.67-2.13,4.57-4.57,4.57-1.83,0-4.11-1.67-4.11-4.11s2.13-4.57,4.11-4.57c2.13,0,4.57,1.83,4.57,4.11Z"/><path class="cls-2" d="m584.96,71.37c0,8.83-4.57,17.12-15.22,17.12s-15.6-5.71-15.6-17.05c0-9.21,7.76-15.21,14.99-15.21,8.98,0,15.83,7.38,15.83,15.14Zm-6.55.84c0-7.23-3.12-14.53-8.6-14.53-7.38,0-8.83,8.83-8.83,15.07,0,7.99,3.19,13.85,8.98,13.85,5.33,0,8.44-5.02,8.44-14.38Z"/><path class="cls-2" d="m591.3,58.33c3.11,0,6.21-.62,8.79-1.42l.61,7.31c1.44-2.21,5.17-7.16,10.04-7.16,8.83,0,10.65,7.23,10.65,11.72v15.22c0,1.1,3.27,1.98,4.87,1.98v1.22c-2.1-.1-5.55-.34-9.28-.34-2.21,0-4.52.09-6.7.34v-1.22c1.75-.07,4.86-.87,4.87-1.9,0,0,.08-12.48.08-15.07,0-5.25-1.83-9.13-5.78-9.13-2.97,0-7.46,3.19-8.9,7.91v16.59c0,.91,2.97,1.45,5.17,1.59v1.22c-1.89-.16-4.96-.25-8.09-.25-2.8,0-5.65.08-7.74.25v-1.22c1.86,0,4.68-.87,4.72-1.9.11-3.05.17-7.44.17-11.91s-.06-8.64-.17-11.67c-1.6-.84-2.43-.84-4.72-.99v-1.22c.47.03.94.05,1.41.05Z"/><path class="cls-2" d="m661.09,81.71c-.61,3.73-3.04,6.01-7.15,6.01-3.73,0-5.02-3.12-5.25-5.63-1.6,1.75-4.87,5.71-9.51,5.78-4.34,0-9.06-2.2-9.06-8.67,0-9.59,15.52-8.67,18.26-8.83,0,0,.23-2.51.23-5.48,0-4.03-1.67-7.08-6.47-7.08-3.19,0-4.79,1.75-5.17,3.28,2.06,0,2.13,2.26,2.13,3.3,0,2.96-2.72,3.7-3.96,3.7-1.9,0-3.65-2.05-3.65-4.18,0-2.36,1.98-4.18,3.5-5.33,2.74-2.05,6.01-2.13,7.84-2.13,5.82,0,11.95,3.8,11.95,10.73,0,4.65-.3,9.21-.3,13.17,0,2.2.15,4.95,2.28,4.95,1.98,0,2.59-1.45,3.2-4.26l1.14.68Zm-12.71-10.27c-7,.76-11.87.46-11.87,6.93,0,4.61,2.66,6.16,5.63,6.16,3.14,0,5.25-2.51,6.24-4.34v-8.75Z"/><path class="cls-2" d="m673.77,54.44c0,8.23.17,17.33.17,30.02.23,1.22,3.43,1.22,5.17,1.52v1.22c-2.37-.29-5.18-.41-7.86-.41-3.52,0-6.81.19-8.58.41v-1.22c1.75-.07,4.87-.3,5.02-1.52.18-4.93.26-12.18.26-19.56,0-8.24-.1-16.64-.26-22.14-1.29-1.06-2.66-1.52-5.02-1.52v-1.22c4.36-.28,7.53-.94,11.41-1.68-.24,5.51-.32,10.61-.32,16.09Z"/></g><g class="cls-1"><path class="cls-2" d="m320.34,135.35c0,6.74.07,13,.25,17.29.08,1.44,3.27,1.37,4.03,1.52v.91c-2.21.08-7.38.15-9.51.76l-.61-5.48c-1.89,2.34-5.63,5.17-9.43,5.17-7.76,0-13.17-6.06-13.17-14.91,0-9.51,6.16-16.13,14.76-16.13,5.86,0,7.69,4.57,7.69,4.57v-18.49c-.23-1.21-2.89-1.52-5.33-1.52l.08-1.29c3.43,0,8.6-.38,11.64-1.45-.23,7.16-.4,18.67-.4,29.06Zm-5.99,3.13l-.3-6.7s-1.9-5.71-7.3-5.71c-5.78,0-7.3,7.08-7.3,13.85,0,4.72.69,13.17,7.53,13.17,3.8,0,6.92-4.79,6.92-7.76l.46-6.85Z"/><path class="cls-2" d="m332.75,140.61c0,6.24,2.29,13.92,7.69,13.92,6.7,0,9.51-5.48,10.35-7.76l2.05,1.45c-.99,2.43-4.64,8.14-12.71,8.14s-14.69-4.95-14.69-15.45c0-12.4,8.9-16.06,15.22-16.06,4.41,0,10.5,1.98,11.95,9.14.16.75.32,1.62.32,2.95,0,.55-.03,1.18-.09,1.92l-20.09.08v1.67Zm13.47-2.89c.06-.78.09-1.58.09-2.37,0-1.36-.11-2.66-.4-3.72-.76-2.97-3.2-5.4-6.85-5.4s-5.86,4.64-6.24,11.57l13.39-.08Z"/><path class="cls-2" d="m382.4,137.36c0,5.77.04,11.15.17,14.37.08,1.83,3.65,2.13,5.63,2.13l.08,1.22c-1.57-.05-3.64-.08-5.9-.08-4.52,0-9.83.1-13.58.3v-1.22s.12,0,.32,0c1.22,0,5.5-.11,5.77-1.68.38-2.21.38-39.34.38-40.79,0-1.29-5.48-1.98-5.48-1.98v-1.07c2.43.22,5.74.31,8.95.31,3.52,0,6.94-.12,9.01-.31v1.44c-2.21.15-5.17.76-5.17,1.75,0,.86-.17,14.04-.17,25.58Z"/><path class="cls-2" d="m395.69,126.2c3.11,0,6.21-.62,8.79-1.42l.61,7.31c1.44-2.21,5.17-7.16,10.04-7.16,8.83,0,10.65,7.23,10.65,11.72v15.22c0,1.1,3.27,1.98,4.87,1.98v1.22c-2.1-.1-5.55-.34-9.28-.34-2.21,0-4.52.09-6.7.34v-1.22c1.75-.07,4.86-.87,4.87-1.9,0,0,.08-12.48.08-15.07,0-5.25-1.83-9.13-5.78-9.13-2.97,0-7.46,3.19-8.9,7.91v16.59c0,.91,2.97,1.45,5.17,1.59v1.22c-1.89-.16-4.96-.25-8.09-.25-2.8,0-5.65.08-7.74.25v-1.22c1.86,0,4.68-.87,4.72-1.9.11-3.05.17-7.44.17-11.91s-.06-8.64-.17-11.67c-1.6-.84-2.43-.84-4.72-.99v-1.22c.47.03.94.05,1.41.05Z"/><path class="cls-2" d="m448.36,126.76c-1.94,0-4.05.43-4.05,2.1,0,.32.08.69.25,1.1l8.06,19.78,7.3-19.78c.16-.42.23-.79.23-1.11,0-1.88-2.49-2.02-4.18-2.08l.15-1.07c1.33.18,3.43.26,5.56.26,2.39,0,4.82-.1,6.31-.26l-.15,1.07c-3.42,0-4.47,1.09-5.63,4.11l-9.44,24.96h-3.96l-11.57-26.03c-1.04-2.33-2.51-2.89-5.78-3.04l.15-1.07c2.87.14,6.49.36,10.11.36,2.33,0,4.66-.09,6.78-.36l-.15,1.07Z"/><path class="cls-2" d="m478.4,140.61c0,6.24,2.29,13.92,7.69,13.92,6.7,0,9.51-5.48,10.35-7.76l2.05,1.45c-.99,2.43-4.64,8.14-12.71,8.14s-14.69-4.95-14.69-15.45c0-12.4,8.9-16.06,15.22-16.06,4.41,0,10.5,1.98,11.95,9.14.16.75.32,1.62.32,2.95,0,.55-.03,1.18-.09,1.92l-20.09.08v1.67Zm13.47-2.89c.06-.78.09-1.58.09-2.37,0-1.36-.11-2.66-.4-3.72-.76-2.97-3.2-5.4-6.85-5.4s-5.86,4.64-6.24,11.57l13.39-.08Z"/><path class="cls-2" d="m504.25,153.09l-.38,2.13h-1.37s-.08-6.43-.15-10.43l1.22.15c.45,4.03,3.12,9.66,8.98,9.66,4.72,0,7-2.13,7-5.63s-4.73-5.81-8.83-7.3c-4.19-1.52-7.91-3.5-7.91-8.22,0-6.09,4.49-9.59,11.11-9.59,4.72,0,7,2.89,7,2.89l.23-2.2h1.37l-.15,9.36h-1.29c-.3-2.82-.84-8.83-7.91-8.83-3.08,0-5.17,2.24-5.17,5.17,0,4.57,5.15,5.24,8.75,6.85,3.58,1.6,8.14,4.34,8.14,8.9,0,7.16-3.88,10.04-12.33,10.04-3.43,0-8.3-2.97-8.3-2.97Z"/><path class="cls-2" d="m540.69,126.38v20.24c0,4.11,1.29,7,3.73,7,2.74,0,4.26-2.51,5.63-6.24l1.6.84c-1.37,3.65-2.89,7.38-8.45,7.38-2.82,0-5.29-.87-6.73-2.47s-1.86-4.07-1.86-9.17v-17.58h-6.24v-.99c2.17,0,6.58-1.52,7.88-3.19,1.01-1.31,2.85-4.79,2.85-8.22h1.75c-.27,2.04-.31,4.54-.31,7.28,0,1.09,0,2.22,0,3.37l8.45-.15-.46,1.9h-7.84Z"/><path class="cls-2" d="m566.17,152.33c.3,1.45,3.88,1.52,5.17,1.52v1.22c-1.89-.16-4.96-.25-8.09-.25-2.8,0-5.65.08-7.74.25v-1.22c1.98-.07,4.49-.07,4.72-1.52v-24.96c-1.83-.61-2.59-.76-4.72-.76v-1.22c3.73-.15,7.91-.69,10.8-1.67-.15,12.86-.15,7.45-.15,28.61Zm1.29-40.79c0,2.67-2.13,4.57-4.57,4.57-1.83,0-4.11-1.67-4.11-4.11s2.13-4.57,4.11-4.57c2.13,0,4.57,1.83,4.57,4.11Z"/><path class="cls-2" d="m599.94,127.14c-.84,0-1.9.08-2.82,1.14,0,0,3.12,2.13,3.12,7.23,0,7.54-7.08,11.26-11.87,11.26-3.2,0-6.09-1.29-6.09-1.29,0,0-2.97,1.22-3.12,2.97.07,2.27,2.74,2.44,4.84,2.44,3.69,0,7.44.17,9.24.53,5.33.99,9.59,2.58,9.59,8.98,0,7.69-7.69,12.1-17.04,12.1s-12.17-4.04-12.17-7.92,3.8-5.97,8.6-7.84c-.21.04-.43-.03-.67-.03-2.39,0-6.1-1.76-6.1-5.91,0-3.39,3.2-5.02,5.33-6.09-.91-.91-4.79-4.18-4.79-8.98,0-5.25,4.64-10.73,11.79-10.73,5.4,0,8.44,2.13,8.44,2.13,1.29-1.14,3.81-3.04,5.94-3.04,2.77,0,3.5,1.44,3.5,2.81,0,1.71-.76,3.04-2.17,3.04-1.71,0-2.7-2.81-3.54-2.81Zm-15.6,29.75s-5.4,1.6-5.4,7.15c0,2.97,2.05,7.16,8.14,7.16,7.38,0,10.81-3.73,10.81-7.38,0-5.86-3.58-6.92-13.55-6.92Zm3.73-30.59c-2.74,0-6.24,3.73-6.24,9.21s2.36,9.97,6.47,9.97c3.27,0,6.39-2.67,6.39-9.82,0-6.39-3.65-9.36-6.62-9.36Z"/><path class="cls-2" d="m637.82,149.59c-.61,3.73-3.04,6.01-7.15,6.01-3.73,0-5.02-3.12-5.25-5.63-1.6,1.75-4.87,5.71-9.51,5.78-4.34,0-9.06-2.2-9.06-8.67,0-9.59,15.52-8.67,18.26-8.83,0,0,.23-2.51.23-5.48,0-4.03-1.67-7.08-6.47-7.08-3.19,0-4.79,1.75-5.17,3.28,2.06,0,2.13,2.26,2.13,3.3,0,2.96-2.72,3.7-3.96,3.7-1.9,0-3.65-2.05-3.65-4.18,0-2.36,1.98-4.18,3.5-5.33,2.74-2.05,6.01-2.13,7.84-2.13,5.82,0,11.95,3.8,11.95,10.73,0,4.65-.3,9.21-.3,13.17,0,2.2.15,4.95,2.28,4.95,1.98,0,2.59-1.45,3.2-4.26l1.14.68Zm-12.71-10.27c-7,.76-11.87.46-11.87,6.93,0,4.61,2.66,6.16,5.63,6.16,3.14,0,5.25-2.51,6.24-4.34v-8.75Z"/><path class="cls-2" d="m665.5,132.85c0,4.26-2.89,5.86-4.41,5.86-1.37,0-4.18-.23-4.18-4.04,0-2.2,1.56-3.88,3.12-3.88,1.3,0,1.83.38,2.51.99-.53-2.13-1.98-6.24-8.75-6.24-4.79,0-8.44,6.62-8.44,15.37,0,6.24,3.73,12.79,9.13,12.79,6.7,0,8.22-5.1,9.05-7.38l2.05,1.45c-.99,2.43-4.57,8.44-11.79,8.44-9.05,0-15.14-5.48-15.14-16.74s9.59-15.21,15.3-15.21c5.25,0,11.57,3.5,11.57,8.6Z"/><path class="cls-2" d="m680.02,152.33c.3,1.45,3.88,1.52,5.17,1.52v1.22c-1.89-.16-4.96-.25-8.09-.25-2.81,0-5.65.08-7.74.25v-1.22c1.98-.07,4.49-.07,4.72-1.52v-24.96c-1.83-.61-2.59-.76-4.72-.76v-1.22c3.73-.15,7.91-.69,10.8-1.67-.15,12.86-.15,7.45-.15,28.61Zm1.29-40.79c0,2.67-2.13,4.57-4.57,4.57-1.83,0-4.11-1.67-4.11-4.11s2.13-4.57,4.11-4.57c2.13,0,4.57,1.83,4.57,4.11Z"/><path class="cls-2" d="m719.05,139.24c0,8.83-4.57,17.12-15.22,17.12s-15.6-5.71-15.6-17.05c0-9.21,7.76-15.21,14.99-15.21,8.98,0,15.83,7.38,15.83,15.14Zm-6.55.84c0-7.23-3.12-14.53-8.6-14.53-7.38,0-8.83,8.83-8.83,15.07,0,7.99,3.19,13.85,8.98,13.85,5.33,0,8.44-5.02,8.44-14.38Zm-2.58-31.04l2.36,3.5-14.08,8.6-.84-1.37,12.56-10.73Z"/><path class="cls-2" d="m723.11,126.2c3.11,0,6.21-.62,8.79-1.42l.61,7.31c1.44-2.21,5.17-7.16,10.04-7.16,8.83,0,10.65,7.23,10.65,11.72v15.22c0,1.1,3.27,1.98,4.87,1.98v1.22c-2.1-.1-5.55-.34-9.28-.34-2.21,0-4.52.09-6.7.34v-1.22c1.75-.07,4.86-.87,4.87-1.9,0,0,.08-12.48.08-15.07,0-5.25-1.83-9.13-5.78-9.13-2.97,0-7.46,3.19-8.9,7.91v16.59c0,.91,2.97,1.45,5.17,1.59v1.22c-1.89-.16-4.96-.25-8.09-.25-2.8,0-5.65.08-7.74.25v-1.22c1.86,0,4.68-.87,4.72-1.9.11-3.05.17-7.44.17-11.91s-.06-8.64-.17-11.67c-1.6-.84-2.43-.84-4.72-.99v-1.22c.47.03.94.05,1.41.05Z"/></g><g class="cls-1"><path class="cls-2" d="m298.45,208.48c0,6.24,2.28,13.92,7.69,13.92,6.7,0,9.51-5.48,10.35-7.76l2.05,1.45c-.99,2.43-4.64,8.14-12.71,8.14s-14.69-4.95-14.69-15.45c0-12.4,8.9-16.06,15.22-16.06,4.41,0,10.5,1.98,11.95,9.14.16.75.32,1.62.32,2.95,0,.55-.03,1.18-.09,1.92l-20.09.08v1.67Zm13.47-2.89c.06-.78.09-1.58.09-2.37,0-1.36-.11-2.66-.4-3.72-.76-2.97-3.2-5.4-6.85-5.4s-5.86,4.64-6.24,11.57l13.39-.08Z"/><path class="cls-2" d="m324.88,194.07c3.11,0,6.21-.62,8.79-1.42l.61,7.31c1.44-2.21,5.17-7.16,10.04-7.16,8.83,0,10.65,7.23,10.65,11.72v15.22c0,1.1,3.27,1.98,4.87,1.98v1.22c-2.1-.1-5.55-.34-9.28-.34-2.21,0-4.52.09-6.7.34v-1.22c1.75-.07,4.86-.87,4.87-1.9,0,0,.08-12.48.08-15.07,0-5.25-1.83-9.13-5.78-9.13-2.97,0-7.46,3.19-8.9,7.91v16.59c0,.91,2.97,1.45,5.17,1.59v1.22c-1.89-.16-4.96-.25-8.09-.25-2.8,0-5.65.08-7.74.25v-1.22c1.86,0,4.68-.87,4.72-1.9.11-3.05.17-7.44.17-11.91s-.06-8.64-.17-11.67c-1.6-.84-2.43-.84-4.72-.99v-1.22c.47.03.94.05,1.41.05Z"/><path class="cls-2" d="m414.83,179.41c1.9-1.22,1.9-2.13,2.29-4.64h2.36l-.23,15.37h-1.45c-1.22-7.68-6.47-12.78-16.89-12.78s-14.6,9.36-14.84,22.29c0,11.34,2.97,22.67,15.9,22.67,10.12,0,13.7-6.08,16.66-13.09,0,0,.99.84,1.75,1.37-2.82,6.77-7.76,14-18.57,14-14.46,0-25.57-8.37-25.57-24.43,0-19.4,15.6-24.88,25.26-24.88,6.24,0,11.87,2.36,13.31,4.11Z"/><path class="cls-2" d="m456.43,217.46c-.61,3.73-3.04,6.01-7.15,6.01-3.73,0-5.02-3.12-5.25-5.63-1.6,1.75-4.87,5.71-9.51,5.78-4.34,0-9.06-2.2-9.06-8.67,0-9.59,15.52-8.67,18.26-8.83,0,0,.23-2.51.23-5.48,0-4.03-1.67-7.08-6.47-7.08-3.19,0-4.79,1.75-5.17,3.28,2.06,0,2.13,2.26,2.13,3.3,0,2.96-2.72,3.7-3.96,3.7-1.9,0-3.65-2.05-3.65-4.18,0-2.36,1.98-4.18,3.5-5.33,2.74-2.05,6.01-2.13,7.84-2.13,5.82,0,11.95,3.8,11.95,10.73,0,4.65-.3,9.21-.3,13.17,0,2.2.15,4.95,2.28,4.95,1.98,0,2.59-1.45,3.2-4.26l1.14.68Zm-12.1-40.55l2.36,3.5-14.08,8.6-.84-1.37,12.56-10.73Zm-.61,30.28c-7,.76-11.87.46-11.87,6.93,0,4.61,2.66,6.16,5.63,6.16,3.14,0,5.25-2.51,6.24-4.34v-8.75Z"/><path class="cls-2" d="m458.06,194.07c3.11,0,6.21-.62,8.79-1.42l.61,7.31c1.44-2.21,5.17-7.16,10.04-7.16,8.83,0,10.65,7.23,10.65,11.72v15.22c0,1.1,3.27,1.98,4.87,1.98v1.22c-2.1-.1-5.55-.34-9.28-.34-2.21,0-4.52.09-6.7.34v-1.22c1.75-.07,4.86-.87,4.87-1.9,0,0,.08-12.48.08-15.07,0-5.25-1.83-9.13-5.78-9.13-2.97,0-7.46,3.19-8.9,7.91v16.59c0,.91,2.97,1.45,5.17,1.59v1.22c-1.89-.16-4.96-.25-8.09-.25-2.8,0-5.65.08-7.74.25v-1.22c1.86,0,4.68-.87,4.72-1.9.11-3.05.17-7.44.17-11.91s-.06-8.64-.17-11.67c-1.6-.84-2.43-.84-4.72-.99v-1.22c.47.03.94.05,1.41.05Z"/><path class="cls-2" d="m522.97,200.72c0,4.26-2.89,5.86-4.41,5.86-1.37,0-4.18-.23-4.18-4.04,0-2.2,1.56-3.88,3.12-3.88,1.3,0,1.83.38,2.51.99-.53-2.13-1.98-6.24-8.75-6.24-4.79,0-8.44,6.62-8.44,15.37,0,6.24,3.73,12.79,9.13,12.79,6.7,0,8.22-5.1,9.05-7.38l2.05,1.45c-.99,2.43-4.57,8.44-11.79,8.44-9.05,0-15.14-5.48-15.14-16.74s9.59-15.21,15.3-15.21c5.25,0,11.57,3.5,11.57,8.6Z"/><path class="cls-2" d="m533.46,208.48c0,6.24,2.28,13.92,7.69,13.92,6.7,0,9.51-5.48,10.35-7.76l2.05,1.45c-.99,2.43-4.64,8.14-12.71,8.14s-14.69-4.95-14.69-15.45c0-12.4,8.9-16.06,15.22-16.06,4.41,0,10.5,1.98,11.95,9.14.16.75.32,1.62.32,2.95,0,.55-.03,1.18-.09,1.92l-20.09.08v1.67Zm13.47-2.89c.06-.78.09-1.58.09-2.37,0-1.36-.11-2.66-.4-3.72-.76-2.97-3.2-5.4-6.85-5.4s-5.86,4.64-6.24,11.57l13.39-.08Z"/><path class="cls-2" d="m584.66,198.51c0,2.36-1.9,4.95-4.11,4.95-1.52,0-3.73-1.44-3.8-3.5,0-1.07.53-1.98,2.13-3.12-.53-.91-.69-1.98-2.51-1.98-4.64,0-7.53,9.05-7.53,9.05l.15,15.9c.08,1.52,4.18,1.83,5.17,1.9v1.22c-1.93-.16-5-.25-8.12-.25-2.79,0-5.63.08-7.71.25v-1.22c1.22-.07,4.72-1.06,4.72-1.9v-24.58c-1.22-.76-2.74-.69-4.72-.76l-.15-1.22c3.96,0,6.7-.61,10.04-1.44l.84,8.9c1.14-2.97,4.18-8.67,9.74-8.67,3.73,0,5.86,2.36,5.86,6.46Z"/></g></g><path class="cls-2" d="m233.19,156.06c4.95-9.08,16.61-36.65-.17-71.74-.28.3-.53.61-.82.9-4.56,4.55-10.39,7.45-16.39,8.28,1.22,8.74,5.74,40.1-4.26,57.3,0,0-.33,3.12,2.22,3.37,1.91.19,3.49-3.22,5.32-5.55,3.11-3.95,6.06-7.67,9.66-7.67.95,0,2.36.28,3.72,1.61,2.24,2.18,2.55,7.12.82,13.19-.03.11-.07.22-.1.32Z"/><path class="cls-2" d="m214.64,156.26c-5.1,2.12-3.85-3.77-3.85-3.77-6.35,8.79-13.71,14.12-21.24,17.16,11.7-40.47-15.6-73.44-46.29-72.99,1.88-6.67,1.02-14.48-3.01-21.46-7.27-12.6-22.08-17.67-33.07-11.33-10.99,6.34-14,21.7-6.72,34.3,3.47,6,8.65,10.27,14.3,12.44-9.43,12.73-23.52,40.13,4.28,65.83,0,0,11.41,11.43,31.98,15.96-10.37,4.81-26.44,3.5-50.42-18.04h0c-25.69-28.91-5.39-60.72,1.58-69.95-1.36-1.56-2.63-3.23-3.71-5.09-3.03-5.24-4.38-10.94-4.23-16.37-7.42,5.96-26.76,24.87-26.76,59.97,0,17.68,5.93,30.65,13.09,39.35h-.01s24.99,37.27,67.06,31.4c8.79-1.23,23.02-8.51,30.67-20.1,2.8-.35,5.67-.81,8.65-1.47,39.99-8.87,48.88-43.07,43.92-47.9-4.96-4.83-11.14,9.95-16.24,12.08Zm-86.12-2.56c-5.14-8.54-7.54-20.68,8.33-31.63l-.04-.08s43.15-17.97,30.61,50.94c0,0-.01.04-.02.06-7.98-.49-15.18-2.46-20.43-4.37-7.67-2.72-14.18-7.98-18.45-14.91Z"/><path class="cls-2" d="m193.21,76.82c-24.25-15.3-53.36-14.47-61.65-13.85,4.26,2.63,7.96,6.42,10.66,11.09,1.85,3.21,3.06,6.6,3.71,9.99,50.93-2.53,63.38,38.19,66.42,57.61,4.34-15.63,2.57-36.54,1.55-45.07-1.29-1.88-2.67-3.59-4.07-5.27,7.06.8,14.84-1.82,20.75-7.72,9.57-9.57,10.57-24.1,2.22-32.44s-22.87-7.35-32.44,2.22c-6.67,6.67-9.07,15.72-7.15,23.43Z"/><path class="cls-2" d="m203.82,188.11c-18.53,41.05-65.51,37.59-65.55,37.6-1.29.21-5.51,3.84-5.63,4.46.05,0,.21.13.58.29,4.36,1.89,10.08.71,11.92.1,1.74-.58,6.02-1.1,8.15.98.65.63,1.63,2.04.92,4.35-1,3.29-4.73,8-10.55,10.99,71.86-6.55,85.62-59.43,87.91-86.71-6.91,16.31-21.88,25.05-27.75,27.94Z"/><path class="cls-2" d="m151.62,232.81c-2.92-2.08-10.12,2.17-17.35,0-7.23-2.17-.54-6.58-.54-6.58-.3-.04-.6-.08-.9-.12-43.3-6.09-76.53-42.69-76.53-86.81,0-48.44,40.09-87.72,89.55-87.72,16.03-.03,31.75,4.23,45.59,12.26,1.34-4.34,3.77-8.53,7.31-12.07,2.07-2.07,4.41-3.8,6.91-5.16-18.12-11.92-39.32-18.3-61.03-18.28-22.92.03-44.2,7.01-61.86,18.95.33-5.29-.9-10.94-3.89-16.12-7.27-12.6-22.08-17.67-33.07-11.33s-14,21.7-6.72,34.3c4.74,8.21,12.67,13.19,20.66,13.94-16.14,19.28-25.86,44.12-25.83,71.23,0,53.63,37.49,101.49,88.68,108.61,21.05,2.94,33.43-11.83,29.01-15.1Z"/></svg>